<svg xmlns="http://www.w3.org/2000/svg" version="1.1" xmlns:xlink="http://www.w3.org/1999/xlink" xmlns:svgjs="http://svgjs.com/svgjs" width="1440" height="560" preserveAspectRatio="none" viewBox="0 0 1440 560"><g mask="url(&quot;#SvgjsMask1116&quot;)" fill="none"><rect width="1440" height="560" x="0" y="0" fill="rgba(15, 14, 14, 1)"></rect><path d="M180 222L179 387" stroke-width="10" stroke="url(#SvgjsLinearGradient1117)" stroke-linecap="round" class="Up"></path><path d="M608 251L607 54" stroke-width="6" stroke="url(#SvgjsLinearGradient1118)" stroke-linecap="round" class="Down"></path><path d="M354 110L353 -230" stroke-width="6" stroke="url(#SvgjsLinearGradient1118)" stroke-linecap="round" class="Down"></path><path d="M1193 221L1192 541" stroke-width="10" stroke="url(#SvgjsLinearGradient1118)" stroke-linecap="round" class="Down"></path><path d="M1319 65L1318 330" stroke-width="8" stroke="url(#SvgjsLinearGradient1117)" stroke-linecap="round" class="Up"></path><path d="M712 203L711 11" stroke-width="8" stroke="url(#SvgjsLinearGradient1117)" stroke-linecap="round" class="Up"></path><path d="M607 348L606 673" stroke-width="6" stroke="url(#SvgjsLinearGradient1117)" stroke-linecap="round" class="Up"></path><path d="M491 314L490 139" stroke-width="10" stroke="url(#SvgjsLinearGradient1118)" stroke-linecap="round" class="Down"></path><path d="M80 88L79 311" stroke-width="8" stroke="url(#SvgjsLinearGradient1118)" stroke-linecap="round" class="Down"></path><path d="M279 153L278 465" stroke-width="10" stroke="url(#SvgjsLinearGradient1118)" stroke-linecap="round" class="Down"></path><path d="M186 518L185 882" stroke-width="6" stroke="url(#SvgjsLinearGradient1118)" stroke-linecap="round" class="Down"></path><path d="M729 422L728 807" stroke-width="6" stroke="url(#SvgjsLinearGradient1117)" stroke-linecap="round" class="Up"></path><path d="M783 328L782 699" stroke-width="6" stroke="url(#SvgjsLinearGradient1118)" stroke-linecap="round" class="Down"></path><path d="M439 451L438 144" stroke-width="8" stroke="url(#SvgjsLinearGradient1118)" stroke-linecap="round" class="Down"></path><path d="M350 363L349 -57" stroke-width="10" stroke="url(#SvgjsLinearGradient1118)" stroke-linecap="round" class="Down"></path><path d="M852 447L851 697" stroke-width="8" stroke="url(#SvgjsLinearGradient1117)" stroke-linecap="round" class="Up"></path><path d="M1264 288L1263 74" stroke-width="6" stroke="url(#SvgjsLinearGradient1117)" stroke-linecap="round" class="Up"></path><path d="M747 117L746 526" stroke-width="6" stroke="url(#SvgjsLinearGradient1117)" stroke-linecap="round" class="Up"></path><path d="M1439 56L1438 -175" stroke-width="10" stroke="url(#SvgjsLinearGradient1117)" stroke-linecap="round" class="Up"></path><path d="M869 37L868 -363" stroke-width="10" stroke="url(#SvgjsLinearGradient1117)" stroke-linecap="round" class="Up"></path><path d="M1256 118L1255 -89" stroke-width="10" stroke="url(#SvgjsLinearGradient1117)" stroke-linecap="round" class="Up"></path><path d="M1018 75L1017 -129" stroke-width="6" stroke="url(#SvgjsLinearGradient1117)" stroke-linecap="round" class="Up"></path><path d="M95 132L94 416" stroke-width="8" stroke="url(#SvgjsLinearGradient1118)" stroke-linecap="round" class="Down"></path><path d="M1249 266L1248 446" stroke-width="8" stroke="url(#SvgjsLinearGradient1118)" stroke-linecap="round" class="Down"></path><path d="M449 229L448 541" stroke-width="6" stroke="url(#SvgjsLinearGradient1118)" stroke-linecap="round" class="Down"></path><path d="M999 166L998 459" stroke-width="8" stroke="url(#SvgjsLinearGradient1117)" stroke-linecap="round" class="Up"></path><path d="M1041 436L1040 242" stroke-width="10" stroke="url(#SvgjsLinearGradient1117)" stroke-linecap="round" class="Up"></path><path d="M303 87L302 277" stroke-width="8" stroke="url(#SvgjsLinearGradient1118)" stroke-linecap="round" class="Down"></path><path d="M33 470L32 830" stroke-width="10" stroke="url(#SvgjsLinearGradient1117)" stroke-linecap="round" class="Up"></path><path d="M939 243L938 531" stroke-width="10" stroke="url(#SvgjsLinearGradient1118)" stroke-linecap="round" class="Down"></path><path d="M902 329L901 700" stroke-width="8" stroke="url(#SvgjsLinearGradient1118)" stroke-linecap="round" class="Down"></path><path d="M1377 389L1376 761" stroke-width="6" stroke="url(#SvgjsLinearGradient1118)" stroke-linecap="round" class="Down"></path><path d="M940 292L939 478" stroke-width="10" stroke="url(#SvgjsLinearGradient1118)" stroke-linecap="round" class="Down"></path><path d="M476 179L475 491" stroke-width="6" stroke="url(#SvgjsLinearGradient1117)" stroke-linecap="round" class="Up"></path><path d="M911 74L910 392" stroke-width="10" stroke="url(#SvgjsLinearGradient1118)" stroke-linecap="round" class="Down"></path><path d="M114 339L113 7" stroke-width="10" stroke="url(#SvgjsLinearGradient1117)" stroke-linecap="round" class="Up"></path></g><defs><mask id="SvgjsMask1116"><rect width="1440" height="560" fill="#ffffff"></rect></mask><linearGradient x1="0%" y1="100%" x2="0%" y2="0%" id="SvgjsLinearGradient1117"><stop stop-color="rgba(255, 255, 255, 0)" offset="0"></stop><stop stop-color="rgba(255, 255, 255, 0.13)" offset="1"></stop></linearGradient><linearGradient x1="0%" y1="0%" x2="0%" y2="100%" id="SvgjsLinearGradient1118"><stop stop-color="rgba(255, 255, 255, 0)" offset="0"></stop><stop stop-color="rgba(255, 255, 255, 0.13)" offset="1"></stop></linearGradient></defs></svg>